<svg xmlns="http://www.w3.org/2000/svg" width="25.912" height="49.999" viewBox="0 0 25.912 49.999">
    <g data-name="Group 330">
        <path data-name="Path 191" d="M1575.429 15354.81c-.008-.211-.024-.422-.024-.632v-22.163h-7.657v-8.89h7.657v-.629c.01-2.326-.049-4.655.047-6.979a11.124 11.124 0 0 1 2.921-7.461 10.272 10.272 0 0 1 5.5-2.944 20.864 20.864 0 0 1 5.2-.257c1.413.054 2.823.175 4.235.27a3.216 3.216 0 0 1 .353.064v7.926h-.51c-1.74.024-3.482 0-5.219.09a3.143 3.143 0 0 0-3.3 3.312c-.089 2.145-.031 4.294-.035 6.441a.6.6 0 0 0 .055.143h8.72l-1.144 8.89h-7.6c-.017.189-.04.329-.04.468v22.012c0 .114.016.228.024.34z" style="fill:#fff" transform="translate(-1567.747 -15304.811)"/>
    </g>
</svg>
