<svg xmlns="http://www.w3.org/2000/svg" width="49.996" height="50" viewBox="0 0 49.996 50">
    <defs>
        <style>
            .cls-1{fill:#fff}
        </style>
    </defs>
    <g id="Group_329" data-name="Group 329" transform="translate(-1640.502 -15304.81)">
        <path id="Path_189" data-name="Path 189" class="cls-1" d="M1682.75 15318.264a6.868 6.868 0 0 0-6.382-5.772c-3.62-.053-7.241-.013-10.861-.013v-.018c-3.39 0-6.78-.025-10.169.017a8.215 8.215 0 0 0-2.511.383 6.833 6.833 0 0 0-4.675 6.725q-.01 10.23.005 20.461a7.378 7.378 0 0 0 .159 1.653 6.873 6.873 0 0 0 6.9 5.462q10.272.021 20.543-.012a7.616 7.616 0 0 0 2.39-.375 6.843 6.843 0 0 0 4.693-6.755q.008-10.208 0-20.42a10.5 10.5 0 0 0-.092-1.336zm-17.272 21.963a10.414 10.414 0 1 1 10.435-10.415 10.437 10.437 0 0 1-10.435 10.415zm11.306-19.106a2.6 2.6 0 0 1 0-5.192 2.6 2.6 0 1 1 0 5.192z"/>
        <path id="Path_190" data-name="Path 190" class="cls-1" d="M1684.411 15307.58a14.152 14.152 0 0 0-8.553-2.761h-1.545q-5.069 0-10.134-.008-4.521 0-9.041.012a14.647 14.647 0 0 0-13.929 10.146 15.825 15.825 0 0 0-.5 2.13c-.038.209-.075.419-.119.626l-.09.427v23.395l.12.488c.064.26.117.524.17.789a14.97 14.97 0 0 0 .775 2.775 14.328 14.328 0 0 0 11.056 8.985 302 302 0 0 0 1.282.227h23.324l.488-.119c.257-.062.519-.115.781-.168a14.987 14.987 0 0 0 2.74-.761 14.253 14.253 0 0 0 9.027-11.119 15.42 15.42 0 0 0 .224-2.8q.016-10.093.005-20.186a14.473 14.473 0 0 0-6.081-12.078zm1.912 32.254a11.671 11.671 0 0 1-.157 2.063 10.128 10.128 0 0 1-6.5 8 20.66 20.66 0 0 1-2.939.74h-22.457c-.292-.052-.584-.1-.875-.154a10.189 10.189 0 0 1-7.974-6.475 20.666 20.666 0 0 1-.752-2.972v-22.458a22.624 22.624 0 0 1 .5-2.332 10.393 10.393 0 0 1 9.976-7.264q10.353-.031 20.7 0a10.053 10.053 0 0 1 6.088 1.949 10.3 10.3 0 0 1 4.385 8.723q.019 10.093.005 20.18z"/>
    </g>
</svg>
