<svg id="Layer_1" data-name="Layer 1" xmlns="http://www.w3.org/2000/svg" viewBox="0 0 24 24"><defs><style>.cls-1{fill:#fff;}</style></defs><g id="g5891"><g id="shapes"><rect id="rect11" class="cls-1" x="0.3" y="7.99" width="5.15" height="15.48"/><path id="path13-0" class="cls-1" d="M2.91.53a2.68,2.68,0,1,0-.07,5.35h0a2.68,2.68,0,1,0,0-5.35Z"/><path id="path15" class="cls-1" d="M18.08,7.63a5.12,5.12,0,0,0-4.64,2.55V8H8.3c.06,1.45,0,15.48,0,15.48h5.14V14.83a3.43,3.43,0,0,1,.17-1.26,2.82,2.82,0,0,1,2.64-1.88c1.86,0,2.61,1.42,2.61,3.5v8.28H24V14.59C24,9.84,21.46,7.63,18.08,7.63Z"/></g></g></svg>