<svg xmlns="http://www.w3.org/2000/svg" viewBox="0 0 511 511.01"><defs><style>.cls-1{fill:#fff;}</style></defs><g id="Layer_2" data-name="Layer 2"><g id="Layer_1-2" data-name="Layer 1"><path class="cls-1" d="M511,43.91V467.09a8,8,0,0,0-.84,1.71C504.72,494.42,484.5,511,458.3,511q-202.82,0-405.63-.05a57.59,57.59,0,0,1-13.8-1.59C15.36,503.45,0,483,0,457.84Q0,255.52,0,53.2c0-1.5,0-3,.07-4.49C1,34.4,6.93,22.6,17.47,13,25,6,34.27,2.61,43.92,0H467.09a11.89,11.89,0,0,0,2.2.91A52,52,0,0,1,499.37,19C505.52,26.3,508.5,35,511,43.91ZM434.08,434.09c.08-1.5.18-2.47.18-3.45,0-47.23.22-94.47-.07-141.7-.2-31.16-13.78-55.86-39.11-73.56-27.33-19.1-61.22-22.94-91.43-2.2-8.06,5.53-14.95,12.77-22.46,19.29v-27.7H204.92V434h76.19v-6.12q0-61.87,0-123.74c0-3.32.1-6.66.41-10,2.15-22.17,26.79-38.5,48-31.86,17.73,5.56,28.07,20,28.1,39.55q.09,63.12,0,126.24v6Zm-281.1,0V204.85H77.09V434.09Zm7.85-319A46,46,0,0,0,114.93,69C89.68,69.05,68.76,90.06,69,115.13a45.93,45.93,0,0,0,91.85-.08Z"/></g></g></svg>