<svg xmlns="http://www.w3.org/2000/svg" viewBox="0 0 41 4.43"><defs><style>.cls-1{fill:#fff;}</style></defs><g id="Layer_2" data-name="Layer 2"><g id="Layer_1-2" data-name="Layer 1"><path class="cls-1" d="M2.7,1H1.85v3.4h-1V1H0V.07H2.7Z"/><path class="cls-1" d="M5.85,4.36h-1V2.56H4v1.8H3V.07H4v1.6h.84V.07h1Z"/><path class="cls-1" d="M8.63,4.36H6.14V.07H8.59V.94H7.13v.74h1v.87h-1v.93h1.5Z"/><path class="cls-1" d="M13,4.36H10.55V.07H13V.94H11.54v.74h1v.87h-1v.93H13Z"/><path class="cls-1" d="M16.06,3.17A1.24,1.24,0,0,1,14.7,4.43a1.57,1.57,0,0,1-1.37-.75L14,3.05c.28.34.51.52.71.52a.32.32,0,0,0,.36-.34c0-.24-.07-.39-.54-.6-.83-.38-1.13-.7-1.13-1.38A1.21,1.21,0,0,1,14.7,0,1.49,1.49,0,0,1,16,.68l-.69.64C15,1,14.94.86,14.67.86a.3.3,0,0,0-.3.31c0,.22.11.35.54.54C15.75,2.09,16.06,2.45,16.06,3.17Z"/><path class="cls-1" d="M19.05,1H18.2v3.4h-1V1h-.85V.07h2.7Z"/><path class="cls-1" d="M22,4.36h-1l-.15-.8H20l-.15.8h-1L19.87.07h1ZM20.62,2.73l0-.14c-.1-.57-.19-1-.23-1.42,0,.39-.12.85-.22,1.43l0,.13Z"/><path class="cls-1" d="M25,3a1.17,1.17,0,0,1-1.3,1.32H22.26V.07h1.49C24.58.07,25,.45,25,1.2a.9.9,0,0,1-.49.88A.94.94,0,0,1,25,3ZM24,1.29c0-.29-.1-.42-.33-.42h-.44v.87h.45C23.88,1.74,24,1.6,24,1.29Zm.06,1.77c0-.37-.12-.53-.37-.53h-.46v1h.47C23.93,3.56,24.05,3.4,24.05,3.06Z"/><path class="cls-1" d="M27.63,4.36H25.32V.07h1v3.4h1.3Z"/><path class="cls-1" d="M28.93,4.36h-1V.07h1Z"/><path class="cls-1" d="M32,3.17a1.24,1.24,0,0,1-1.36,1.26,1.57,1.57,0,0,1-1.37-.75l.68-.63c.28.34.51.52.71.52A.32.32,0,0,0,31,3.23c0-.24-.07-.39-.54-.6-.83-.38-1.13-.7-1.13-1.38A1.21,1.21,0,0,1,30.59,0a1.49,1.49,0,0,1,1.32.68l-.7.64c-.28-.35-.38-.46-.65-.46a.3.3,0,0,0-.3.31c0,.22.11.35.54.54C31.64,2.09,32,2.45,32,3.17Z"/><path class="cls-1" d="M35.1,4.36h-1V2.56h-.84v1.8h-1V.07h1v1.6h.84V.07h1Z"/><path class="cls-1" d="M37.88,4.36H35.39V.07h2.45V.94H36.38v.74h.95v.87h-.95v.93h1.5Z"/><path class="cls-1" d="M41,2.18c0,1.55-.57,2.18-1.7,2.18H38.17V.07h1.22C40.47.07,41,.72,41,2.18Zm-1,0c0-1.05-.16-1.28-.63-1.28h-.18v2.6h.16C39.79,3.52,40,3.29,40,2.2Z"/></g></g></svg>