<svg xmlns="http://www.w3.org/2000/svg" viewBox="0 0 249.89 50"><defs><style>.cls-1{fill:#fff;}</style></defs><g id="Layer_2" data-name="Layer 2"><g id="Layer_1-2" data-name="Layer 1"><path class="cls-1" d="M30.42,10.87H20.84V49.24H9.58V10.87H0V.76H30.42Z"/><path class="cls-1" d="M66,49.24H54.6V29H45.09V49.24H33.69V.76h11.4V18.84H54.6V.76H66Z"/><path class="cls-1" d="M97.89,49.24H69.76V.76H97.42v9.91H81V19H91.68v9.83H81V39.33H97.89Z"/><path class="cls-1" d="M147.18,49.24H119.05V.76H146.7v9.91H130.25V19H141v9.83H130.25V39.33h16.93Z"/><path class="cls-1" d="M181.27,35.73C181.27,44.81,174.73,50,166,50c-7.35,0-11.6-3.12-15.51-8.45l7.69-7.13c3.17,3.88,5.73,5.89,8,5.89s4.05-1.25,4.05-3.88-.74-4.37-6.07-6.79c-9.38-4.22-12.81-7.89-12.81-15.51C151.33,6.23,156.92,0,166,0c7.29,0,10.93,2.7,14.84,7.69L173,14.89c-3.24-4-4.39-5.19-7.36-5.19a3.3,3.3,0,0,0-3.37,3.46c0,2.56,1.22,4,6,6.16C177.77,23.61,181.27,27.63,181.27,35.73Z"/><path class="cls-1" d="M215,10.87h-9.57V49.24H194.12V10.87h-9.58V.76H215Z"/><path class="cls-1" d="M249.89,24.65c0,17.45-6.41,24.59-19.23,24.59H218V.76h13.69C243.88.76,249.89,8.1,249.89,24.65Zm-11.54.21c0-11.84-1.82-14.47-7.08-14.47h-2V39.68H231C236.26,39.68,238.35,37.12,238.35,24.86Z"/></g></g></svg>