<svg xmlns="http://www.w3.org/2000/svg" width="520" height="56.184" viewBox="0 0 520 56.184">
    <defs>
        <style>
            .cls-1{fill:#ff003d}
        </style>
    </defs>
    <g id="Group_325" data-name="Group 325" transform="translate(-74.141 -15304.81)">
        <path id="Path_175" data-name="Path 175" class="cls-1" d="M108.326 15317.027H97.564v43.109H84.9v-43.109H74.141v-11.361h34.185z"/>
        <path id="Path_176" data-name="Path 176" class="cls-1" d="M148.308 15360.137H135.5v-22.8h-10.69v22.8H112v-54.471h12.81v20.31h10.69v-20.31h12.812z"/>
        <path id="Path_177" data-name="Path 177" class="cls-1" d="M184.135 15360.137h-31.607v-54.471H183.6v11.128h-18.49v9.338h12.052v11.049H165.11v11.828h19.025z"/>
        <path id="Path_178" data-name="Path 178" class="cls-1" d="M239.519 15360.137h-31.607v-54.471h31.076v11.128h-18.5v9.338h12.052v11.049h-12.047v11.828h19.026z"/>
        <path id="Path_179" data-name="Path 179" class="cls-1" d="M277.832 15344.963c0 10.194-7.352 16.03-17.2 16.03-8.263 0-13.037-3.5-17.434-9.494l8.642-8.014c3.561 4.357 6.442 6.614 9.018 6.614 2.654 0 4.55-1.4 4.55-4.357 0-3.035-.834-4.9-6.823-7.626-10.536-4.747-14.4-8.872-14.4-17.432 0-8.87 6.289-15.875 16.447-15.875 8.186 0 12.278 3.035 16.676 8.639l-8.793 8.093c-3.638-4.435-4.926-5.836-8.263-5.836a3.709 3.709 0 0 0-3.789 3.891c0 2.879 1.363 4.513 6.745 6.926 10.684 4.823 14.624 9.337 14.624 18.441z"/>
        <path id="Path_180" data-name="Path 180" class="cls-1" d="M315.689 15317.027h-10.762v43.109h-12.659v-43.109h-10.762v-11.361h34.183z"/>
        <path id="Path_181" data-name="Path 181" class="cls-1" d="M352.782 15360.137h-13.037l-1.972-10.115h-10.459l-1.9 10.115h-13.032l13.719-54.471h13.037zm-17.131-20.7-.3-1.789c-1.213-7.16-2.349-13.073-2.88-18.054-.456 4.98-1.516 10.894-2.806 18.13l-.3 1.713z"/>
        <path id="Path_182" data-name="Path 182" class="cls-1" d="M391.626 15343.406c0 10.583-5.307 16.73-16.525 16.73h-18.645v-54.471H375.4c10.461 0 15.388 4.825 15.388 14.4 0 5.914-2.426 9.026-6.14 11.13 4.324 2.018 6.978 5.597 6.978 12.211zm-13.19-22.176c0-3.735-1.288-5.448-4.244-5.448h-5.609v11.128h5.761c2.729 0 4.092-1.867 4.092-5.68zm.759 22.41c0-4.67-1.591-6.77-4.7-6.77h-5.912v13.15h6.064c2.953.001 4.553-2.1 4.553-6.379z"/>
        <path id="Path_183" data-name="Path 183" class="cls-1" d="M424.557 15360.137H395.3v-54.471h12.734v43.11h16.523z"/>
        <path id="Path_184" data-name="Path 184" class="cls-1" d="M441.042 15360.137h-12.811v-54.471h12.811z"/>
        <path id="Path_185" data-name="Path 185" class="cls-1" d="M479.355 15344.963c0 10.194-7.352 16.03-17.205 16.03-8.263 0-13.037-3.5-17.434-9.494l8.642-8.014c3.561 4.357 6.442 6.614 9.018 6.614 2.654 0 4.55-1.4 4.55-4.357 0-3.035-.834-4.9-6.823-7.626-10.536-4.747-14.4-8.872-14.4-17.432 0-8.87 6.29-15.875 16.447-15.875 8.186 0 12.278 3.035 16.676 8.639l-8.793 8.093c-3.638-4.435-4.926-5.836-8.263-5.836a3.709 3.709 0 0 0-3.789 3.891c0 2.879 1.363 4.513 6.745 6.926 10.689 4.823 14.629 9.337 14.629 18.441z"/>
        <path id="Path_186" data-name="Path 186" class="cls-1" d="M519.334 15360.137h-12.809v-22.8h-10.687v22.8h-12.809v-54.471h12.809v20.31h10.687v-20.31h12.809z"/>
        <path id="Path_187" data-name="Path 187" class="cls-1" d="M555.109 15360.137H523.5v-54.471h31.076v11.128h-18.493v9.338h12.052v11.049h-12.052v11.828h19.026z"/>
        <path id="Path_188" data-name="Path 188" class="cls-1" d="M594.141 15332.513c0 19.609-7.2 27.624-21.6 27.624H558.29v-54.471h15.385c13.725 0 20.466 8.248 20.466 26.847zm-12.961.233c0-13.306-2.047-16.263-7.959-16.263h-2.273v32.915h1.97c5.913.002 8.262-2.879 8.262-16.652z"/>
    </g>
</svg>
