<svg xmlns="http://www.w3.org/2000/svg" width="40.404" height="46" viewBox="0 0 40.404 46">
    <g data-name="Group 332">
        <path data-name="Path 195" d="M1744.075 15352.81c-1.02-.149-2.056-.232-3.058-.462a14.2 14.2 0 0 1 1.12-27.854 13.2 13.2 0 0 1 4.49-.011v7.56c-.4-.074-.773-.158-1.151-.213a6.787 6.787 0 1 0-1.838 13.447 6.855 6.855 0 0 0 7.685-6.962c-.042-5.456 0-10.914 0-16.37v-15.135h7.44c.109.773.176 1.548.332 2.3a11.56 11.56 0 0 0 10.832 9.152c.457.017.573.138.567.587-.024 2.129-.011 4.258-.011 6.387v.523a19.164 19.164 0 0 1-11.651-3.935v.558l.047 15.921a13.779 13.779 0 0 1-2.334 7.984 14.181 14.181 0 0 1-11.092 6.443c-.162.013-.322.05-.483.075z" style="fill:#fff" transform="translate(-1730.095 -15306.81)"/>
    </g>
</svg>
