<svg xmlns="http://www.w3.org/2000/svg" viewBox="0 0 1042.13 205.13"><defs><style>.cls-1{fill:#ff003d;}</style></defs><g id="Layer_2" data-name="Layer 2"><g id="Layer_1-2" data-name="Layer 1"><path class="cls-1" d="M113.86,67.13C118.92,27.74,112.46,0,78.11,0,39.35,0,20.41,35.93,6.57,114.4-1,157.24-2.31,187,4.09,205.13H79.67c7.38-10.94,13-25.68,18.21-43.77l-33.15-5.05C56,187.83,52.22,195.08,44.35,195.08c-11.66,0-13.43-13.24-1.31-81.94,12.05-68.39,18-80.68,29-80.68,9.14,0,9.2,10.4,6.24,39.71Z"/><path class="cls-1" d="M252.18,3.47l-29.45,167c-3.17,18-8.12,24.58-18.52,24.58-9.77,0-13.64-6.62-10.42-24.9L223.19,3.47h-35.3l-29.34,166.4c-2.47,14-1.84,26,1.79,35.26h83.94c6.84-9.62,11.55-22.2,14.24-37.47l29-164.19Z"/><path class="cls-1" d="M359,191.3,392.07,3.47h-35.3L321.21,205.13h77.21l2.44-13.83Z"/><path class="cls-1" d="M474.76,3.47,469,36.24H498.6L468.82,205.13h35.3L533.9,36.24h29.94l5.78-32.77Z"/><path class="cls-1" d="M694.38,3.47l-29.46,167c-3.16,18-8.11,24.58-18.51,24.58-9.77,0-13.65-6.62-10.42-24.9L665.38,3.47H630.09l-29.34,166.4c-2.47,14-1.84,26,1.79,35.26h83.94c6.84-9.62,11.55-22.2,14.24-37.47L729.67,3.47Z"/><path class="cls-1" d="M845,3.47H799L763.41,205.13h35L812.16,127H821l.93,78.12h35.66l-2.35-88.21c14-9.77,24.31-27.1,28.82-52.63C892.16,18.28,872.4,3.47,845,3.47Zm3.18,62.4C844,89.19,836.5,98,824.53,98h-7.25l11.39-64.6h8.19C849.15,33.41,852.44,41.6,848.16,65.87Z"/><path class="cls-1" d="M1036.35,36.24l5.78-32.77H959.56L924,205.13h85.4l2.44-13.83h-50.1l11.83-67.13h36.24l5.78-32.78H979.35l9.73-55.15Z"/></g></g></svg>