<svg xmlns="http://www.w3.org/2000/svg" viewBox="0 0 557.26 205.13"><defs><style>.cls-1{fill:#ff003d;}</style></defs><g id="Layer_2" data-name="Layer 2"><g id="Layer_1-2" data-name="Layer 1"><path class="cls-1" d="M115.1,53.26C116.72,20.8,108.1,0,77.22,0,47,0,27.78,23,22.34,53.89,17.89,79.1,26,99.27,43.63,122.59c16.7,21.43,20.86,31.83,17.13,52.94-2.5,14.18-7.28,19.86-16.1,19.86-7.88,0-11.44-6.62-9.24-33.41L.64,168c-1.38,15-.57,27.53,2.93,37.16H82.38c6.5-8.92,11.06-20.09,13.29-32.75,5.33-30.25-3.12-52-23.72-78.16C57.52,76,54.15,66.49,56.87,51.05,59.32,37.18,64,31.82,71.61,31.82c7.87,0,10.49,6.62,9.18,28.37Z"/><path class="cls-1" d="M264.42,36.24,270.2,3.46H187.63L152.07,205.13h85.4l2.44-13.84h-50.1l11.83-67.13h36.25l5.77-32.77H207.42l9.73-55.15Z"/><path class="cls-1" d="M337,191.29,370.06,3.46H334.77L299.21,205.13h77.21l2.44-13.84Z"/><path class="cls-1" d="M551.48,36.24l5.78-32.78H473.43L437.87,205.13h35.3l14.27-81H524l5.78-32.77H493.22L503,36.24Z"/></g></g></svg>