<svg xmlns="http://www.w3.org/2000/svg" viewBox="0 0 1433.64 208.38"><defs><style>.cls-1{fill:#ff003d;}</style></defs><g id="Layer_2" data-name="Layer 2"><g id="Layer_1-2" data-name="Layer 1"><path class="cls-1" d="M113.86,67.12C118.91,27.73,112.46,0,78.11,0,39.35,0,20.41,35.92,6.57,114.39c-8,45.51-9,76.19-1.2,94H77.32c8.57-11.2,14.8-27.08,20.55-47l-33.14-5C56,187.82,52.22,195.07,44.34,195.07c-11.66,0-13.42-13.23-1.31-81.94,12.06-68.38,18-80.67,29-80.67,9.14,0,9.2,10.4,6.23,39.71Z"/><path class="cls-1" d="M237.16,0c-39.08,0-58,37.5-71.54,114.39-7.88,44.69-9.27,75.85-1.27,94H236c14.94-18.35,24.89-50,32.87-95.25C282.17,37.81,276.23,0,237.16,0Zm-5,114.39c-11.78,66.82-18,80.68-29.35,80.68-11,0-12.57-14.49-.68-81.94,11.78-66.81,17.38-80.67,29-80.67C242.46,32.46,244,47,232.11,114.39Z"/><path class="cls-1" d="M441.19,3.46,414.6,70.27c-7.91,19.86-18.14,45.7-23.2,63.66,1.28-18,.42-43.49-.49-63.34L388.25,3.46H353.58L317.45,208.38H349l7.4-42c4.55-25.84,8.29-54.2,11.65-75,.2,16.7,1.39,51.05,2.66,72.48l2.44,44.51h10.41l18.35-44.51c9.3-22.37,22.33-55.15,28.53-72.48-4.63,22.69-10.07,48.22-14.8,75l-7.4,42h31.52L475.86,3.46Z"/><path class="cls-1" d="M633.23,3.46,606.64,70.27c-7.91,19.86-18.14,45.7-23.2,63.66,1.28-18,.42-43.49-.49-63.34L580.29,3.46H545.63L509.5,208.38H541l7.4-42c4.56-25.84,8.3-54.2,11.65-75,.21,16.7,1.4,51.05,2.66,72.48l2.44,44.51h10.41l18.35-44.51c9.3-22.37,22.33-55.15,28.54-72.48-4.63,22.69-10.08,48.22-14.8,75l-7.4,42h31.51L667.9,3.46Z"/><path class="cls-1" d="M801.52,3.46l-29.46,167c-3.16,18-8.11,24.58-18.51,24.58-9.77,0-13.65-6.62-10.42-24.9L772.52,3.46H737.23l-29.34,166.4c-2.77,15.73-1.64,28.81,3.24,38.52h80c8.22-10,13.73-23.67,16.74-40.73L836.81,3.46Z"/><path class="cls-1" d="M972.92,3.46l-9.78,55.47c-2.89,16.39-7.6,46.64-9.95,61.77C952,104,948.27,75.32,945.77,57.35L937.94,3.46H906.11L870,208.38h32.77l9.79-55.54c3.45-19.54,8.1-49.48,10.62-65.55,1.2,16.39,4.27,47.27,7.36,69l7.29,52.07h31.75L1005.69,3.46Z"/><path class="cls-1" d="M1075.59,3.46l-36.13,204.92h35.29L1110.88,3.46Z"/><path class="cls-1" d="M1171.86,3.46l-5.78,32.78h29.62l-30.35,172.14h35.3L1231,36.24h29.94l5.78-32.78Z"/><path class="cls-1" d="M1396.77,3.46l-15.9,41.92c-7.76,20.8-14.14,39.08-18.6,55.46,1-16.38.75-34.66,0-55.46l-1.75-41.92h-38.45l16.35,128.9-13.4,76h35.61l13.68-77.6L1433.64,3.46Z"/></g></g></svg>