<svg xmlns="http://www.w3.org/2000/svg" viewBox="0 0 723.89 205.14"><defs><style>.cls-1{fill:#ff003d;}</style></defs><g id="Layer_2" data-name="Layer 2"><g id="Layer_1-2" data-name="Layer 1"><path class="cls-1" d="M115.09,53.26C116.72,20.8,108.09,0,77.21,0,47,0,27.77,23,22.33,53.89,17.88,79.1,26,99.27,43.62,122.59c16.7,21.43,20.86,31.83,17.14,52.95-2.51,14.18-7.29,19.85-16.11,19.85-7.88,0-11.44-6.62-9.24-33.4L.64,168c-1.38,15-.57,27.53,2.93,37.17h78.8c6.5-8.92,11.06-20.09,13.29-32.75,5.34-30.26-3.12-52-23.72-78.16C57.52,76,54.14,66.5,56.86,51.05,59.31,37.19,64,31.83,71.6,31.83c7.88,0,10.49,6.62,9.18,28.36Z"/><path class="cls-1" d="M181,3.47l-5.78,32.77h29.63L175,205.14h35.29l29.78-168.9h29.94l5.78-32.77Z"/><path class="cls-1" d="M405.88,3.47,390,45.38c-7.77,20.8-14.14,39.08-18.61,55.47,1-16.39.76-34.67,0-55.47L369.64,3.47H331.2l16.35,128.89-12.84,72.78h35.62l13.11-74.35L442.76,3.47Z"/><path class="cls-1" d="M504.84,191.3,538,3.47h-35.3L467.1,205.14h77.21l2.44-13.84Z"/><path class="cls-1" d="M718.11,36.24l5.78-32.77H641.32L605.76,205.14h85.41l2.44-13.84H643.5l11.84-67.13h36.24l5.78-32.78H661.12l9.72-55.15Z"/></g></g></svg>