<svg xmlns="http://www.w3.org/2000/svg" width="53.523" height="44" viewBox="0 0 53.523 44">
    <defs>
        <style>
            .cls-1{fill:#fff}
        </style>
    </defs>
    <g id="Group_331" data-name="Group 331" transform="translate(-1808.333 -15307.81)">
        <path id="Path_192" data-name="Path 192" class="cls-1" d="M1860.414 15308.764a5.321 5.321 0 0 1-.189.744 10.675 10.675 0 0 1-3.731 4.717c-.16.115-.316.233-.472.354-.011.008 0 .042-.01.119a21.584 21.584 0 0 0 5.819-1.634h-.011a3.6 3.6 0 0 1-.295.681 20.9 20.9 0 0 1-4.564 4.711 1.082 1.082 0 0 0-.489 1.031c.4 12.344-6.939 24.521-18.073 29.407-10.032 4.4-19.942 3.811-29.5-1.654a8.98 8.98 0 0 1-.5-.318c-.028-.019-.032-.075-.067-.167a22.3 22.3 0 0 0 12.5-2.308 29.509 29.509 0 0 0 3.47-2.2 11.705 11.705 0 0 1-7.007-2.958 10.628 10.628 0 0 1-3.112-4.838h4.7l.019-.181c-5.347-1.678-8.228-5.278-8.649-11.011a11.258 11.258 0 0 0 4.893 1.323c-6.06-4.985-5.38-11.292-3.194-14.669a31.389 31.389 0 0 0 22.636 11.462c-.059-.579-.115-1.068-.158-1.56a11.044 11.044 0 0 1 11.316-12 10.861 10.861 0 0 1 7.406 3.108.854.854 0 0 0 .918.268 24.451 24.451 0 0 0 5.883-2.24 3.043 3.043 0 0 1 .478-.172z"/>
        <path id="Path_193" data-name="Path 193" class="cls-1" d="M1860.426 15308.778a.173.173 0 0 1 .009-.053c0-.007.025 0 .039 0l-.06.043z"/>
        <path id="Path_194" data-name="Path 194" class="cls-1" d="m1861.831 15313.063.025.037-.034-.04z"/>
    </g>
</svg>
